<?xml version="1.0" encoding="utf-8" standalone="no"?>
<!DOCTYPE svg PUBLIC "-//W3C//DTD SVG 1.1//EN"
  "http://www.w3.org/Graphics/SVG/1.1/DTD/svg11.dtd">
<svg xmlns:xlink="http://www.w3.org/1999/xlink" width="460.8pt" height="345.6pt" viewBox="0 0 460.8 345.6" xmlns="http://www.w3.org/2000/svg" version="1.1">
 <metadata>
  <rdf:RDF xmlns:dc="http://purl.org/dc/elements/1.1/" xmlns:cc="http://creativecommons.org/ns#" xmlns:rdf="http://www.w3.org/1999/02/22-rdf-syntax-ns#">
   <cc:Work>
    <dc:type rdf:resource="http://purl.org/dc/dcmitype/StillImage"/>
    <dc:date>2024-09-18T05:53:17.306468</dc:date>
    <dc:format>image/svg+xml</dc:format>
    <dc:creator>
     <cc:Agent>
      <dc:title>Matplotlib v3.8.3, https://matplotlib.org/</dc:title>
     </cc:Agent>
    </dc:creator>
   </cc:Work>
  </rdf:RDF>
 </metadata>
 <defs>
  <style type="text/css">*{stroke-linejoin: round; stroke-linecap: butt}</style>
 </defs>
 <g id="figure_1">
  <g id="patch_1">
   <path d="M 0 345.6 
L 460.8 345.6 
L 460.8 0 
L 0 0 
z
" style="fill: #ffffff"/>
  </g>
  <g id="axes_1">
   <g id="line2d_1">
    <path d="M 73.832727 174.528 
L 398.487273 174.528 
" clip-path="url(#p926512da53)" style="fill: none; stroke: #000000; stroke-width: 1.5; stroke-linecap: square"/>
   </g>
   <g id="line2d_2">
    <path d="M 73.832727 295.488 
L 73.832727 53.568 
" clip-path="url(#p926512da53)" style="fill: none; stroke: #0000ff; stroke-width: 1.5; stroke-linecap: square"/>
   </g>
   <g id="line2d_3">
    <path d="M 97.022338 295.488 
L 97.022338 53.568 
" clip-path="url(#p926512da53)" style="fill: none; stroke: #0000ff; stroke-width: 1.5; stroke-linecap: square"/>
   </g>
   <g id="line2d_4">
    <path d="M 120.211948 295.488 
L 120.211948 53.568 
" clip-path="url(#p926512da53)" style="fill: none; stroke: #0000ff; stroke-width: 1.5; stroke-linecap: square"/>
   </g>
   <g id="line2d_5">
    <path d="M 131.806753 295.488 
L 131.806753 53.568 
" clip-path="url(#p926512da53)" style="fill: none; stroke: #0000ff; stroke-width: 1.5; stroke-linecap: square"/>
   </g>
   <g id="line2d_6">
    <path d="M 143.401558 295.488 
L 143.401558 53.568 
" clip-path="url(#p926512da53)" style="fill: none; stroke: #0000ff; stroke-width: 1.5; stroke-linecap: square"/>
   </g>
   <g id="line2d_7">
    <path d="M 154.996364 295.488 
L 154.996364 53.568 
" clip-path="url(#p926512da53)" style="fill: none; stroke: #0000ff; stroke-width: 1.5; stroke-linecap: square"/>
   </g>
   <g id="line2d_8">
    <path d="M 166.591169 295.488 
L 166.591169 53.568 
" clip-path="url(#p926512da53)" style="fill: none; stroke: #0000ff; stroke-width: 1.5; stroke-linecap: square"/>
   </g>
   <g id="line2d_9">
    <path d="M 178.185974 295.488 
L 178.185974 53.568 
" clip-path="url(#p926512da53)" style="fill: none; stroke: #0000ff; stroke-width: 1.5; stroke-linecap: square"/>
   </g>
   <g id="line2d_10">
    <path d="M 189.780779 295.488 
L 189.780779 53.568 
" clip-path="url(#p926512da53)" style="fill: none; stroke: #0000ff; stroke-width: 1.5; stroke-linecap: square"/>
   </g>
   <g id="line2d_11">
    <path d="M 201.375584 295.488 
L 201.375584 53.568 
" clip-path="url(#p926512da53)" style="fill: none; stroke: #0000ff; stroke-width: 1.5; stroke-linecap: square"/>
   </g>
   <g id="line2d_12">
    <path d="M 212.97039 295.488 
L 212.97039 53.568 
" clip-path="url(#p926512da53)" style="fill: none; stroke: #0000ff; stroke-width: 1.5; stroke-linecap: square"/>
   </g>
   <g id="line2d_13">
    <path d="M 224.565195 271.296 
L 224.565195 77.76 
" clip-path="url(#p926512da53)" style="fill: none; stroke: #800080; stroke-width: 1.5; stroke-linecap: square"/>
   </g>
   <g id="line2d_14">
    <path d="M 236.16 271.296 
L 236.16 77.76 
" clip-path="url(#p926512da53)" style="fill: none; stroke: #800080; stroke-width: 1.5; stroke-linecap: square"/>
   </g>
   <g id="line2d_15">
    <path d="M 247.754805 271.296 
L 247.754805 77.76 
" clip-path="url(#p926512da53)" style="fill: none; stroke: #800080; stroke-width: 1.5; stroke-linecap: square"/>
   </g>
   <g id="line2d_16">
    <path d="M 259.34961 271.296 
L 259.34961 77.76 
" clip-path="url(#p926512da53)" style="fill: none; stroke: #800080; stroke-width: 1.5; stroke-linecap: square"/>
   </g>
   <g id="line2d_17">
    <path d="M 270.944416 271.296 
L 270.944416 77.76 
" clip-path="url(#p926512da53)" style="fill: none; stroke: #800080; stroke-width: 1.5; stroke-linecap: square"/>
   </g>
   <g id="line2d_18">
    <path d="M 282.539221 271.296 
L 282.539221 77.76 
" clip-path="url(#p926512da53)" style="fill: none; stroke: #800080; stroke-width: 1.5; stroke-linecap: square"/>
   </g>
   <g id="line2d_19">
    <path d="M 294.134026 271.296 
L 294.134026 77.76 
" clip-path="url(#p926512da53)" style="fill: none; stroke: #800080; stroke-width: 1.5; stroke-linecap: square"/>
   </g>
   <g id="line2d_20">
    <path d="M 305.728831 295.488 
L 305.728831 53.568 
" clip-path="url(#p926512da53)" style="fill: none; stroke: #0000ff; stroke-width: 1.5; stroke-linecap: square"/>
   </g>
   <g id="line2d_21">
    <path d="M 317.323636 271.296 
L 317.323636 77.76 
" clip-path="url(#p926512da53)" style="fill: none; stroke: #800080; stroke-width: 1.5; stroke-linecap: square"/>
   </g>
   <g id="line2d_22">
    <path d="M 328.918442 271.296 
L 328.918442 77.76 
" clip-path="url(#p926512da53)" style="fill: none; stroke: #800080; stroke-width: 1.5; stroke-linecap: square"/>
   </g>
   <g id="line2d_23">
    <path d="M 340.513247 271.296 
L 340.513247 77.76 
" clip-path="url(#p926512da53)" style="fill: none; stroke: #800080; stroke-width: 1.5; stroke-linecap: square"/>
   </g>
   <g id="line2d_24">
    <path d="M 352.108052 271.296 
L 352.108052 77.76 
" clip-path="url(#p926512da53)" style="fill: none; stroke: #800080; stroke-width: 1.5; stroke-linecap: square"/>
   </g>
   <g id="line2d_25">
    <path d="M 363.702857 271.296 
L 363.702857 77.76 
" clip-path="url(#p926512da53)" style="fill: none; stroke: #800080; stroke-width: 1.5; stroke-linecap: square"/>
   </g>
   <g id="line2d_26">
    <path d="M 375.297662 271.296 
L 375.297662 77.76 
" clip-path="url(#p926512da53)" style="fill: none; stroke: #800080; stroke-width: 1.5; stroke-linecap: square"/>
   </g>
   <g id="line2d_27">
    <path d="M 386.892468 271.296 
L 386.892468 77.76 
" clip-path="url(#p926512da53)" style="fill: none; stroke: #800080; stroke-width: 1.5; stroke-linecap: square"/>
   </g>
   <g id="line2d_28">
    <path d="M 398.487273 295.488 
L 398.487273 53.568 
" clip-path="url(#p926512da53)" style="fill: none; stroke: #0000ff; stroke-width: 1.5; stroke-linecap: square"/>
   </g>
   <g id="text_1">
    <!-- -2.5 -->
    <g style="fill: #0000ff" transform="translate(76.040227 323.19275) rotate(-90) scale(0.08 -0.08)">
     <defs>
      <path id="DejaVuSans-2d" d="M 313 2009 
L 1997 2009 
L 1997 1497 
L 313 1497 
L 313 2009 
z
" transform="scale(0.015625)"/>
      <path id="DejaVuSans-32" d="M 1228 531 
L 3431 531 
L 3431 0 
L 469 0 
L 469 531 
Q 828 903 1448 1529 
Q 2069 2156 2228 2338 
Q 2531 2678 2651 2914 
Q 2772 3150 2772 3378 
Q 2772 3750 2511 3984 
Q 2250 4219 1831 4219 
Q 1534 4219 1204 4116 
Q 875 4013 500 3803 
L 500 4441 
Q 881 4594 1212 4672 
Q 1544 4750 1819 4750 
Q 2544 4750 2975 4387 
Q 3406 4025 3406 3419 
Q 3406 3131 3298 2873 
Q 3191 2616 2906 2266 
Q 2828 2175 2409 1742 
Q 1991 1309 1228 531 
z
" transform="scale(0.015625)"/>
      <path id="DejaVuSans-2e" d="M 684 794 
L 1344 794 
L 1344 0 
L 684 0 
L 684 794 
z
" transform="scale(0.015625)"/>
      <path id="DejaVuSans-35" d="M 691 4666 
L 3169 4666 
L 3169 4134 
L 1269 4134 
L 1269 2991 
Q 1406 3038 1543 3061 
Q 1681 3084 1819 3084 
Q 2600 3084 3056 2656 
Q 3513 2228 3513 1497 
Q 3513 744 3044 326 
Q 2575 -91 1722 -91 
Q 1428 -91 1123 -41 
Q 819 9 494 109 
L 494 744 
Q 775 591 1075 516 
Q 1375 441 1709 441 
Q 2250 441 2565 725 
Q 2881 1009 2881 1497 
Q 2881 1984 2565 2268 
Q 2250 2553 1709 2553 
Q 1456 2553 1204 2497 
Q 953 2441 691 2322 
L 691 4666 
z
" transform="scale(0.015625)"/>
     </defs>
     <use xlink:href="#DejaVuSans-2d"/>
     <use xlink:href="#DejaVuSans-32" x="36.083984"/>
     <use xlink:href="#DejaVuSans-2e" x="99.707031"/>
     <use xlink:href="#DejaVuSans-35" x="131.494141"/>
    </g>
   </g>
   <g id="text_2">
    <!-- -2.2 -->
    <g style="fill: #0000ff" transform="translate(99.229838 323.19275) rotate(-90) scale(0.08 -0.08)">
     <use xlink:href="#DejaVuSans-2d"/>
     <use xlink:href="#DejaVuSans-32" x="36.083984"/>
     <use xlink:href="#DejaVuSans-2e" x="99.707031"/>
     <use xlink:href="#DejaVuSans-32" x="131.494141"/>
    </g>
   </g>
   <g id="text_3">
    <!-- -2.0 -->
    <g style="fill: #0000ff" transform="translate(122.419448 323.19275) rotate(-90) scale(0.08 -0.08)">
     <defs>
      <path id="DejaVuSans-30" d="M 2034 4250 
Q 1547 4250 1301 3770 
Q 1056 3291 1056 2328 
Q 1056 1369 1301 889 
Q 1547 409 2034 409 
Q 2525 409 2770 889 
Q 3016 1369 3016 2328 
Q 3016 3291 2770 3770 
Q 2525 4250 2034 4250 
z
M 2034 4750 
Q 2819 4750 3233 4129 
Q 3647 3509 3647 2328 
Q 3647 1150 3233 529 
Q 2819 -91 2034 -91 
Q 1250 -91 836 529 
Q 422 1150 422 2328 
Q 422 3509 836 4129 
Q 1250 4750 2034 4750 
z
" transform="scale(0.015625)"/>
     </defs>
     <use xlink:href="#DejaVuSans-2d"/>
     <use xlink:href="#DejaVuSans-32" x="36.083984"/>
     <use xlink:href="#DejaVuSans-2e" x="99.707031"/>
     <use xlink:href="#DejaVuSans-30" x="131.494141"/>
    </g>
   </g>
   <g id="text_4">
    <!-- -1.9 -->
    <g style="fill: #0000ff" transform="translate(134.014253 323.19275) rotate(-90) scale(0.08 -0.08)">
     <defs>
      <path id="DejaVuSans-31" d="M 794 531 
L 1825 531 
L 1825 4091 
L 703 3866 
L 703 4441 
L 1819 4666 
L 2450 4666 
L 2450 531 
L 3481 531 
L 3481 0 
L 794 0 
L 794 531 
z
" transform="scale(0.015625)"/>
      <path id="DejaVuSans-39" d="M 703 97 
L 703 672 
Q 941 559 1184 500 
Q 1428 441 1663 441 
Q 2288 441 2617 861 
Q 2947 1281 2994 2138 
Q 2813 1869 2534 1725 
Q 2256 1581 1919 1581 
Q 1219 1581 811 2004 
Q 403 2428 403 3163 
Q 403 3881 828 4315 
Q 1253 4750 1959 4750 
Q 2769 4750 3195 4129 
Q 3622 3509 3622 2328 
Q 3622 1225 3098 567 
Q 2575 -91 1691 -91 
Q 1453 -91 1209 -44 
Q 966 3 703 97 
z
M 1959 2075 
Q 2384 2075 2632 2365 
Q 2881 2656 2881 3163 
Q 2881 3666 2632 3958 
Q 2384 4250 1959 4250 
Q 1534 4250 1286 3958 
Q 1038 3666 1038 3163 
Q 1038 2656 1286 2365 
Q 1534 2075 1959 2075 
z
" transform="scale(0.015625)"/>
     </defs>
     <use xlink:href="#DejaVuSans-2d"/>
     <use xlink:href="#DejaVuSans-31" x="36.083984"/>
     <use xlink:href="#DejaVuSans-2e" x="99.707031"/>
     <use xlink:href="#DejaVuSans-39" x="131.494141"/>
    </g>
   </g>
   <g id="text_5">
    <!-- -1.8 -->
    <g style="fill: #0000ff" transform="translate(145.609058 323.19275) rotate(-90) scale(0.08 -0.08)">
     <defs>
      <path id="DejaVuSans-38" d="M 2034 2216 
Q 1584 2216 1326 1975 
Q 1069 1734 1069 1313 
Q 1069 891 1326 650 
Q 1584 409 2034 409 
Q 2484 409 2743 651 
Q 3003 894 3003 1313 
Q 3003 1734 2745 1975 
Q 2488 2216 2034 2216 
z
M 1403 2484 
Q 997 2584 770 2862 
Q 544 3141 544 3541 
Q 544 4100 942 4425 
Q 1341 4750 2034 4750 
Q 2731 4750 3128 4425 
Q 3525 4100 3525 3541 
Q 3525 3141 3298 2862 
Q 3072 2584 2669 2484 
Q 3125 2378 3379 2068 
Q 3634 1759 3634 1313 
Q 3634 634 3220 271 
Q 2806 -91 2034 -91 
Q 1263 -91 848 271 
Q 434 634 434 1313 
Q 434 1759 690 2068 
Q 947 2378 1403 2484 
z
M 1172 3481 
Q 1172 3119 1398 2916 
Q 1625 2713 2034 2713 
Q 2441 2713 2670 2916 
Q 2900 3119 2900 3481 
Q 2900 3844 2670 4047 
Q 2441 4250 2034 4250 
Q 1625 4250 1398 4047 
Q 1172 3844 1172 3481 
z
" transform="scale(0.015625)"/>
     </defs>
     <use xlink:href="#DejaVuSans-2d"/>
     <use xlink:href="#DejaVuSans-31" x="36.083984"/>
     <use xlink:href="#DejaVuSans-2e" x="99.707031"/>
     <use xlink:href="#DejaVuSans-38" x="131.494141"/>
    </g>
   </g>
   <g id="text_6">
    <!-- -1.6 -->
    <g style="fill: #0000ff" transform="translate(157.203864 323.19275) rotate(-90) scale(0.08 -0.08)">
     <defs>
      <path id="DejaVuSans-36" d="M 2113 2584 
Q 1688 2584 1439 2293 
Q 1191 2003 1191 1497 
Q 1191 994 1439 701 
Q 1688 409 2113 409 
Q 2538 409 2786 701 
Q 3034 994 3034 1497 
Q 3034 2003 2786 2293 
Q 2538 2584 2113 2584 
z
M 3366 4563 
L 3366 3988 
Q 3128 4100 2886 4159 
Q 2644 4219 2406 4219 
Q 1781 4219 1451 3797 
Q 1122 3375 1075 2522 
Q 1259 2794 1537 2939 
Q 1816 3084 2150 3084 
Q 2853 3084 3261 2657 
Q 3669 2231 3669 1497 
Q 3669 778 3244 343 
Q 2819 -91 2113 -91 
Q 1303 -91 875 529 
Q 447 1150 447 2328 
Q 447 3434 972 4092 
Q 1497 4750 2381 4750 
Q 2619 4750 2861 4703 
Q 3103 4656 3366 4563 
z
" transform="scale(0.015625)"/>
     </defs>
     <use xlink:href="#DejaVuSans-2d"/>
     <use xlink:href="#DejaVuSans-31" x="36.083984"/>
     <use xlink:href="#DejaVuSans-2e" x="99.707031"/>
     <use xlink:href="#DejaVuSans-36" x="131.494141"/>
    </g>
   </g>
   <g id="text_7">
    <!-- -1.5 -->
    <g style="fill: #0000ff" transform="translate(168.798669 323.19275) rotate(-90) scale(0.08 -0.08)">
     <use xlink:href="#DejaVuSans-2d"/>
     <use xlink:href="#DejaVuSans-31" x="36.083984"/>
     <use xlink:href="#DejaVuSans-2e" x="99.707031"/>
     <use xlink:href="#DejaVuSans-35" x="131.494141"/>
    </g>
   </g>
   <g id="text_8">
    <!-- -1.4 -->
    <g style="fill: #0000ff" transform="translate(180.393474 323.19275) rotate(-90) scale(0.08 -0.08)">
     <defs>
      <path id="DejaVuSans-34" d="M 2419 4116 
L 825 1625 
L 2419 1625 
L 2419 4116 
z
M 2253 4666 
L 3047 4666 
L 3047 1625 
L 3713 1625 
L 3713 1100 
L 3047 1100 
L 3047 0 
L 2419 0 
L 2419 1100 
L 313 1100 
L 313 1709 
L 2253 4666 
z
" transform="scale(0.015625)"/>
     </defs>
     <use xlink:href="#DejaVuSans-2d"/>
     <use xlink:href="#DejaVuSans-31" x="36.083984"/>
     <use xlink:href="#DejaVuSans-2e" x="99.707031"/>
     <use xlink:href="#DejaVuSans-34" x="131.494141"/>
    </g>
   </g>
   <g id="text_9">
    <!-- -1.2 -->
    <g style="fill: #0000ff" transform="translate(191.988279 323.19275) rotate(-90) scale(0.08 -0.08)">
     <use xlink:href="#DejaVuSans-2d"/>
     <use xlink:href="#DejaVuSans-31" x="36.083984"/>
     <use xlink:href="#DejaVuSans-2e" x="99.707031"/>
     <use xlink:href="#DejaVuSans-32" x="131.494141"/>
    </g>
   </g>
   <g id="text_10">
    <!-- -1.1 -->
    <g style="fill: #0000ff" transform="translate(203.583084 323.19275) rotate(-90) scale(0.08 -0.08)">
     <use xlink:href="#DejaVuSans-2d"/>
     <use xlink:href="#DejaVuSans-31" x="36.083984"/>
     <use xlink:href="#DejaVuSans-2e" x="99.707031"/>
     <use xlink:href="#DejaVuSans-31" x="131.494141"/>
    </g>
   </g>
   <g id="text_11">
    <!-- -1.0 -->
    <g style="fill: #0000ff" transform="translate(215.17789 323.19275) rotate(-90) scale(0.08 -0.08)">
     <use xlink:href="#DejaVuSans-2d"/>
     <use xlink:href="#DejaVuSans-31" x="36.083984"/>
     <use xlink:href="#DejaVuSans-2e" x="99.707031"/>
     <use xlink:href="#DejaVuSans-30" x="131.494141"/>
    </g>
   </g>
   <g id="text_12">
    <!-- -0.88 -->
    <g style="fill: #800080" transform="translate(226.772695 316.18675) rotate(-90) scale(0.08 -0.08)">
     <use xlink:href="#DejaVuSans-2d"/>
     <use xlink:href="#DejaVuSans-30" x="36.083984"/>
     <use xlink:href="#DejaVuSans-2e" x="99.707031"/>
     <use xlink:href="#DejaVuSans-38" x="131.494141"/>
     <use xlink:href="#DejaVuSans-38" x="195.117188"/>
    </g>
   </g>
   <g id="text_13">
    <!-- -0.75 -->
    <g style="fill: #800080" transform="translate(238.3675 316.18675) rotate(-90) scale(0.08 -0.08)">
     <defs>
      <path id="DejaVuSans-37" d="M 525 4666 
L 3525 4666 
L 3525 4397 
L 1831 0 
L 1172 0 
L 2766 4134 
L 525 4134 
L 525 4666 
z
" transform="scale(0.015625)"/>
     </defs>
     <use xlink:href="#DejaVuSans-2d"/>
     <use xlink:href="#DejaVuSans-30" x="36.083984"/>
     <use xlink:href="#DejaVuSans-2e" x="99.707031"/>
     <use xlink:href="#DejaVuSans-37" x="131.494141"/>
     <use xlink:href="#DejaVuSans-35" x="195.117188"/>
    </g>
   </g>
   <g id="text_14">
    <!-- -0.62 -->
    <g style="fill: #800080" transform="translate(249.962305 316.18675) rotate(-90) scale(0.08 -0.08)">
     <use xlink:href="#DejaVuSans-2d"/>
     <use xlink:href="#DejaVuSans-30" x="36.083984"/>
     <use xlink:href="#DejaVuSans-2e" x="99.707031"/>
     <use xlink:href="#DejaVuSans-36" x="131.494141"/>
     <use xlink:href="#DejaVuSans-32" x="195.117188"/>
    </g>
   </g>
   <g id="text_15">
    <!-- -0.5 -->
    <g style="fill: #800080" transform="translate(261.55711 311.09675) rotate(-90) scale(0.08 -0.08)">
     <use xlink:href="#DejaVuSans-2d"/>
     <use xlink:href="#DejaVuSans-30" x="36.083984"/>
     <use xlink:href="#DejaVuSans-2e" x="99.707031"/>
     <use xlink:href="#DejaVuSans-35" x="131.494141"/>
    </g>
   </g>
   <g id="text_16">
    <!-- -0.38 -->
    <g style="fill: #800080" transform="translate(273.151916 316.18675) rotate(-90) scale(0.08 -0.08)">
     <defs>
      <path id="DejaVuSans-33" d="M 2597 2516 
Q 3050 2419 3304 2112 
Q 3559 1806 3559 1356 
Q 3559 666 3084 287 
Q 2609 -91 1734 -91 
Q 1441 -91 1130 -33 
Q 819 25 488 141 
L 488 750 
Q 750 597 1062 519 
Q 1375 441 1716 441 
Q 2309 441 2620 675 
Q 2931 909 2931 1356 
Q 2931 1769 2642 2001 
Q 2353 2234 1838 2234 
L 1294 2234 
L 1294 2753 
L 1863 2753 
Q 2328 2753 2575 2939 
Q 2822 3125 2822 3475 
Q 2822 3834 2567 4026 
Q 2313 4219 1838 4219 
Q 1578 4219 1281 4162 
Q 984 4106 628 3988 
L 628 4550 
Q 988 4650 1302 4700 
Q 1616 4750 1894 4750 
Q 2613 4750 3031 4423 
Q 3450 4097 3450 3541 
Q 3450 3153 3228 2886 
Q 3006 2619 2597 2516 
z
" transform="scale(0.015625)"/>
     </defs>
     <use xlink:href="#DejaVuSans-2d"/>
     <use xlink:href="#DejaVuSans-30" x="36.083984"/>
     <use xlink:href="#DejaVuSans-2e" x="99.707031"/>
     <use xlink:href="#DejaVuSans-33" x="131.494141"/>
     <use xlink:href="#DejaVuSans-38" x="195.117188"/>
    </g>
   </g>
   <g id="text_17">
    <!-- -0.25 -->
    <g style="fill: #800080" transform="translate(284.746721 316.18675) rotate(-90) scale(0.08 -0.08)">
     <use xlink:href="#DejaVuSans-2d"/>
     <use xlink:href="#DejaVuSans-30" x="36.083984"/>
     <use xlink:href="#DejaVuSans-2e" x="99.707031"/>
     <use xlink:href="#DejaVuSans-32" x="131.494141"/>
     <use xlink:href="#DejaVuSans-35" x="195.117188"/>
    </g>
   </g>
   <g id="text_18">
    <!-- -0.12 -->
    <g style="fill: #800080" transform="translate(296.341526 316.18675) rotate(-90) scale(0.08 -0.08)">
     <use xlink:href="#DejaVuSans-2d"/>
     <use xlink:href="#DejaVuSans-30" x="36.083984"/>
     <use xlink:href="#DejaVuSans-2e" x="99.707031"/>
     <use xlink:href="#DejaVuSans-31" x="131.494141"/>
     <use xlink:href="#DejaVuSans-32" x="195.117188"/>
    </g>
   </g>
   <g id="text_19">
    <!-- $\pm 0$ -->
    <g style="fill: #0000ff" transform="translate(307.936331 319.424) rotate(-90) scale(0.08 -0.08)">
     <defs>
      <path id="DejaVuSans-b1" d="M 2944 4013 
L 2944 2803 
L 4684 2803 
L 4684 2272 
L 2944 2272 
L 2944 1063 
L 2419 1063 
L 2419 2272 
L 678 2272 
L 678 2803 
L 2419 2803 
L 2419 4013 
L 2944 4013 
z
M 678 531 
L 4684 531 
L 4684 0 
L 678 0 
L 678 531 
z
" transform="scale(0.015625)"/>
     </defs>
     <use xlink:href="#DejaVuSans-b1" transform="translate(0 0.78125)"/>
     <use xlink:href="#DejaVuSans-30" transform="translate(83.789062 0.78125)"/>
    </g>
   </g>
   <g id="text_20">
    <!-- 0.12 -->
    <g style="fill: #800080" transform="translate(319.531136 313.3005) rotate(-90) scale(0.08 -0.08)">
     <use xlink:href="#DejaVuSans-30"/>
     <use xlink:href="#DejaVuSans-2e" x="63.623047"/>
     <use xlink:href="#DejaVuSans-31" x="95.410156"/>
     <use xlink:href="#DejaVuSans-32" x="159.033203"/>
    </g>
   </g>
   <g id="text_21">
    <!-- 0.25 -->
    <g style="fill: #800080" transform="translate(331.125942 313.3005) rotate(-90) scale(0.08 -0.08)">
     <use xlink:href="#DejaVuSans-30"/>
     <use xlink:href="#DejaVuSans-2e" x="63.623047"/>
     <use xlink:href="#DejaVuSans-32" x="95.410156"/>
     <use xlink:href="#DejaVuSans-35" x="159.033203"/>
    </g>
   </g>
   <g id="text_22">
    <!-- 0.38 -->
    <g style="fill: #800080" transform="translate(342.720747 313.3005) rotate(-90) scale(0.08 -0.08)">
     <use xlink:href="#DejaVuSans-30"/>
     <use xlink:href="#DejaVuSans-2e" x="63.623047"/>
     <use xlink:href="#DejaVuSans-33" x="95.410156"/>
     <use xlink:href="#DejaVuSans-38" x="159.033203"/>
    </g>
   </g>
   <g id="text_23">
    <!-- 0.5 -->
    <g style="fill: #800080" transform="translate(354.315552 308.2105) rotate(-90) scale(0.08 -0.08)">
     <use xlink:href="#DejaVuSans-30"/>
     <use xlink:href="#DejaVuSans-2e" x="63.623047"/>
     <use xlink:href="#DejaVuSans-35" x="95.410156"/>
    </g>
   </g>
   <g id="text_24">
    <!-- 0.62 -->
    <g style="fill: #800080" transform="translate(365.910357 313.3005) rotate(-90) scale(0.08 -0.08)">
     <use xlink:href="#DejaVuSans-30"/>
     <use xlink:href="#DejaVuSans-2e" x="63.623047"/>
     <use xlink:href="#DejaVuSans-36" x="95.410156"/>
     <use xlink:href="#DejaVuSans-32" x="159.033203"/>
    </g>
   </g>
   <g id="text_25">
    <!-- 0.75 -->
    <g style="fill: #800080" transform="translate(377.505162 313.3005) rotate(-90) scale(0.08 -0.08)">
     <use xlink:href="#DejaVuSans-30"/>
     <use xlink:href="#DejaVuSans-2e" x="63.623047"/>
     <use xlink:href="#DejaVuSans-37" x="95.410156"/>
     <use xlink:href="#DejaVuSans-35" x="159.033203"/>
    </g>
   </g>
   <g id="text_26">
    <!-- 0.88 -->
    <g style="fill: #800080" transform="translate(389.099968 313.3005) rotate(-90) scale(0.08 -0.08)">
     <use xlink:href="#DejaVuSans-30"/>
     <use xlink:href="#DejaVuSans-2e" x="63.623047"/>
     <use xlink:href="#DejaVuSans-38" x="95.410156"/>
     <use xlink:href="#DejaVuSans-38" x="159.033203"/>
    </g>
   </g>
   <g id="text_27">
    <!-- 1.0 -->
    <g style="fill: #0000ff" transform="translate(400.694773 320.3065) rotate(-90) scale(0.08 -0.08)">
     <use xlink:href="#DejaVuSans-31"/>
     <use xlink:href="#DejaVuSans-2e" x="63.623047"/>
     <use xlink:href="#DejaVuSans-30" x="95.410156"/>
    </g>
   </g>
  </g>
 </g>
 <defs>
  <clipPath id="p926512da53">
   <rect x="57.6" y="41.472" width="357.12" height="266.112"/>
  </clipPath>
 </defs>
</svg>
